<svg width="1400" height="900" viewBox="0 0 1400 900" fill="none" xmlns="http://www.w3.org/2000/svg" role="img" aria-label=";;NAB@0F8O: 70O2:8 8 HB@8E:>4K">
  <defs>
    <linearGradient id="g" x1="220" y1="160" x2="1180" y2="760" gradientUnits="userSpaceOnUse">
      <stop stop-color="#00A7B8"/>
      <stop offset="0.6" stop-color="#008DE6"/>
      <stop offset="1" stop-color="#FF7A00" stop-opacity="0.78"/>
    </linearGradient>
    <filter id="s" x="-30%" y="-30%" width="160%" height="160%" color-interpolation-filters="sRGB">
      <feDropShadow dx="0" dy="20" stdDeviation="26" flood-color="#0B1220" flood-opacity="0.14"/>
    </filter>
  </defs>
  <rect width="1400" height="900" rx="46" fill="white"/>

  <g filter="url(#s)">
    <rect x="170" y="150" width="520" height="600" rx="34" fill="white" stroke="#0B1220" stroke-opacity="0.08"/>
    <rect x="230" y="220" width="400" height="120" rx="24" fill="#F6FBFC" stroke="#0B1220" stroke-opacity="0.06"/>
    <rect x="230" y="360" width="400" height="80" rx="22" fill="#F6FBFC" stroke="#0B1220" stroke-opacity="0.06"/>
    <rect x="230" y="460" width="400" height="80" rx="22" fill="#F6FBFC" stroke="#0B1220" stroke-opacity="0.06"/>
    <rect x="230" y="560" width="240" height="66" rx="20" fill="url(#g)" opacity="0.88"/>

    <rect x="760" y="210" width="470" height="540" rx="34" fill="white" stroke="#0B1220" stroke-opacity="0.08"/>
    <rect x="820" y="270" width="350" height="150" rx="26" fill="#F6FBFC" stroke="#0B1220" stroke-opacity="0.06"/>

    <!-- barcode -->
    <g transform="translate(855 305)" opacity="0.95">
      <rect width="10" height="80" fill="#0B1220" fill-opacity="0.78"/>
      <rect x="16" width="4" height="80" fill="#0B1220" fill-opacity="0.72"/>
      <rect x="26" width="14" height="80" fill="#0B1220" fill-opacity="0.82"/>
      <rect x="46" width="6" height="80" fill="#0B1220" fill-opacity="0.72"/>
      <rect x="58" width="18" height="80" fill="#0B1220" fill-opacity="0.84"/>
      <rect x="82" width="6" height="80" fill="#0B1220" fill-opacity="0.7"/>
      <rect x="94" width="12" height="80" fill="#0B1220" fill-opacity="0.8"/>
      <rect x="112" width="4" height="80" fill="#0B1220" fill-opacity="0.68"/>
      <rect x="122" width="16" height="80" fill="#0B1220" fill-opacity="0.84"/>
      <rect x="144" width="6" height="80" fill="#0B1220" fill-opacity="0.7"/>
      <rect x="156" width="10" height="80" fill="#0B1220" fill-opacity="0.78"/>
      <rect x="172" width="4" height="80" fill="#0B1220" fill-opacity="0.66"/>
      <rect x="182" width="14" height="80" fill="#0B1220" fill-opacity="0.82"/>
      <rect x="202" width="6" height="80" fill="#0B1220" fill-opacity="0.7"/>
      <rect x="214" width="18" height="80" fill="#0B1220" fill-opacity="0.84"/>
      <rect x="238" width="6" height="80" fill="#0B1220" fill-opacity="0.7"/>
      <rect x="250" width="12" height="80" fill="#0B1220" fill-opacity="0.8"/>
    </g>

    <rect x="820" y="450" width="350" height="86" rx="24" fill="white" stroke="#0B1220" stroke-opacity="0.06"/>
    <path d="M860 492h170" stroke="#0B1220" stroke-opacity="0.16" stroke-width="12" stroke-linecap="round"/>
    <rect x="820" y="560" width="260" height="70" rx="22" fill="url(#g)" opacity="0.9"/>
  </g>
</svg>
